<?xml version="1.0" encoding="utf-8" standalone="no"?>
<!DOCTYPE svg PUBLIC "-//W3C//DTD SVG 1.1//EN"
  "http://www.w3.org/Graphics/SVG/1.1/DTD/svg11.dtd">
<svg xmlns:xlink="http://www.w3.org/1999/xlink" width="864pt" height="432pt" viewBox="0 0 864 432" xmlns="http://www.w3.org/2000/svg" version="1.1">
 <metadata>
  <rdf:RDF xmlns:dc="http://purl.org/dc/elements/1.1/" xmlns:cc="http://creativecommons.org/ns#" xmlns:rdf="http://www.w3.org/1999/02/22-rdf-syntax-ns#">
   <cc:Work>
    <dc:type rdf:resource="http://purl.org/dc/dcmitype/StillImage"/>
    <dc:date>2024-10-16T20:53:46.778113</dc:date>
    <dc:format>image/svg+xml</dc:format>
    <dc:creator>
     <cc:Agent>
      <dc:title>Matplotlib v3.9.2, https://matplotlib.org/</dc:title>
     </cc:Agent>
    </dc:creator>
   </cc:Work>
  </rdf:RDF>
 </metadata>
 <defs>
  <style type="text/css">*{stroke-linejoin: round; stroke-linecap: butt}</style>
 </defs>
 <g id="figure_1">
  <g id="patch_1">
   <path d="M 0 432 
L 864 432 
L 864 0 
L 0 0 
z
" style="fill: #ffffff"/>
  </g>
  <g id="axes_1">
   <g id="patch_2">
    <path d="M 46.64 390.04 
L 426.6 390.04 
L 426.6 26.88 
L 46.64 26.88 
z
" style="fill: #ffffff"/>
   </g>
   <g id="matplotlib.axis_1">
    <g id="xtick_1">
     <g id="line2d_1">
      <path d="M 63.910909 390.04 
L 63.910909 26.88 
" clip-path="url(#p5c7f4044c9)" style="fill: none; stroke: #b0b0b0; stroke-width: 0.8; stroke-linecap: square"/>
     </g>
     <g id="line2d_2">
      <defs>
       <path id="ma25ed03ad2" d="M 0 0 
L 0 3.5 
" style="stroke: #000000; stroke-width: 0.8"/>
      </defs>
      <g>
       <use xlink:href="#ma25ed03ad2" x="63.910909" y="390.04" style="stroke: #000000; stroke-width: 0.8"/>
      </g>
     </g>
     <g id="text_1">
      <!-- 0 -->
      <g transform="translate(60.729659 404.638438) scale(0.1 -0.1)">
       <defs>
        <path id="DejaVuSans-30" d="M 2034 4250 
Q 1547 4250 1301 3770 
Q 1056 3291 1056 2328 
Q 1056 1369 1301 889 
Q 1547 409 2034 409 
Q 2525 409 2770 889 
Q 3016 1369 3016 2328 
Q 3016 3291 2770 3770 
Q 2525 4250 2034 4250 
z
M 2034 4750 
Q 2819 4750 3233 4129 
Q 3647 3509 3647 2328 
Q 3647 1150 3233 529 
Q 2819 -91 2034 -91 
Q 1250 -91 836 529 
Q 422 1150 422 2328 
Q 422 3509 836 4129 
Q 1250 4750 2034 4750 
z
" transform="scale(0.015625)"/>
       </defs>
       <use xlink:href="#DejaVuSans-30"/>
      </g>
     </g>
    </g>
    <g id="xtick_2">
     <g id="line2d_3">
      <path d="M 143.262662 390.04 
L 143.262662 26.88 
" clip-path="url(#p5c7f4044c9)" style="fill: none; stroke: #b0b0b0; stroke-width: 0.8; stroke-linecap: square"/>
     </g>
     <g id="line2d_4">
      <g>
       <use xlink:href="#ma25ed03ad2" x="143.262662" y="390.04" style="stroke: #000000; stroke-width: 0.8"/>
      </g>
     </g>
     <g id="text_2">
      <!-- 5 -->
      <g transform="translate(140.081412 404.638438) scale(0.1 -0.1)">
       <defs>
        <path id="DejaVuSans-35" d="M 691 4666 
L 3169 4666 
L 3169 4134 
L 1269 4134 
L 1269 2991 
Q 1406 3038 1543 3061 
Q 1681 3084 1819 3084 
Q 2600 3084 3056 2656 
Q 3513 2228 3513 1497 
Q 3513 744 3044 326 
Q 2575 -91 1722 -91 
Q 1428 -91 1123 -41 
Q 819 9 494 109 
L 494 744 
Q 775 591 1075 516 
Q 1375 441 1709 441 
Q 2250 441 2565 725 
Q 2881 1009 2881 1497 
Q 2881 1984 2565 2268 
Q 2250 2553 1709 2553 
Q 1456 2553 1204 2497 
Q 953 2441 691 2322 
L 691 4666 
z
" transform="scale(0.015625)"/>
       </defs>
       <use xlink:href="#DejaVuSans-35"/>
      </g>
     </g>
    </g>
    <g id="xtick_3">
     <g id="line2d_5">
      <path d="M 222.614416 390.04 
L 222.614416 26.88 
" clip-path="url(#p5c7f4044c9)" style="fill: none; stroke: #b0b0b0; stroke-width: 0.8; stroke-linecap: square"/>
     </g>
     <g id="line2d_6">
      <g>
       <use xlink:href="#ma25ed03ad2" x="222.614416" y="390.04" style="stroke: #000000; stroke-width: 0.8"/>
      </g>
     </g>
     <g id="text_3">
      <!-- 10 -->
      <g transform="translate(216.251916 404.638438) scale(0.1 -0.1)">
       <defs>
        <path id="DejaVuSans-31" d="M 794 531 
L 1825 531 
L 1825 4091 
L 703 3866 
L 703 4441 
L 1819 4666 
L 2450 4666 
L 2450 531 
L 3481 531 
L 3481 0 
L 794 0 
L 794 531 
z
" transform="scale(0.015625)"/>
       </defs>
       <use xlink:href="#DejaVuSans-31"/>
       <use xlink:href="#DejaVuSans-30" x="63.623047"/>
      </g>
     </g>
    </g>
    <g id="xtick_4">
     <g id="line2d_7">
      <path d="M 301.966169 390.04 
L 301.966169 26.88 
" clip-path="url(#p5c7f4044c9)" style="fill: none; stroke: #b0b0b0; stroke-width: 0.8; stroke-linecap: square"/>
     </g>
     <g id="line2d_8">
      <g>
       <use xlink:href="#ma25ed03ad2" x="301.966169" y="390.04" style="stroke: #000000; stroke-width: 0.8"/>
      </g>
     </g>
     <g id="text_4">
      <!-- 15 -->
      <g transform="translate(295.603669 404.638438) scale(0.1 -0.1)">
       <use xlink:href="#DejaVuSans-31"/>
       <use xlink:href="#DejaVuSans-35" x="63.623047"/>
      </g>
     </g>
    </g>
    <g id="xtick_5">
     <g id="line2d_9">
      <path d="M 381.317922 390.04 
L 381.317922 26.88 
" clip-path="url(#p5c7f4044c9)" style="fill: none; stroke: #b0b0b0; stroke-width: 0.8; stroke-linecap: square"/>
     </g>
     <g id="line2d_10">
      <g>
       <use xlink:href="#ma25ed03ad2" x="381.317922" y="390.04" style="stroke: #000000; stroke-width: 0.8"/>
      </g>
     </g>
     <g id="text_5">
      <!-- 20 -->
      <g transform="translate(374.955422 404.638438) scale(0.1 -0.1)">
       <defs>
        <path id="DejaVuSans-32" d="M 1228 531 
L 3431 531 
L 3431 0 
L 469 0 
L 469 531 
Q 828 903 1448 1529 
Q 2069 2156 2228 2338 
Q 2531 2678 2651 2914 
Q 2772 3150 2772 3378 
Q 2772 3750 2511 3984 
Q 2250 4219 1831 4219 
Q 1534 4219 1204 4116 
Q 875 4013 500 3803 
L 500 4441 
Q 881 4594 1212 4672 
Q 1544 4750 1819 4750 
Q 2544 4750 2975 4387 
Q 3406 4025 3406 3419 
Q 3406 3131 3298 2873 
Q 3191 2616 2906 2266 
Q 2828 2175 2409 1742 
Q 1991 1309 1228 531 
z
" transform="scale(0.015625)"/>
       </defs>
       <use xlink:href="#DejaVuSans-32"/>
       <use xlink:href="#DejaVuSans-30" x="63.623047"/>
      </g>
     </g>
    </g>
    <g id="text_6">
     <!-- Time [s] -->
     <g transform="translate(216.291094 418.316562) scale(0.1 -0.1)">
      <defs>
       <path id="DejaVuSans-54" d="M -19 4666 
L 3928 4666 
L 3928 4134 
L 2272 4134 
L 2272 0 
L 1638 0 
L 1638 4134 
L -19 4134 
L -19 4666 
z
" transform="scale(0.015625)"/>
       <path id="DejaVuSans-69" d="M 603 3500 
L 1178 3500 
L 1178 0 
L 603 0 
L 603 3500 
z
M 603 4863 
L 1178 4863 
L 1178 4134 
L 603 4134 
L 603 4863 
z
" transform="scale(0.015625)"/>
       <path id="DejaVuSans-6d" d="M 3328 2828 
Q 3544 3216 3844 3400 
Q 4144 3584 4550 3584 
Q 5097 3584 5394 3201 
Q 5691 2819 5691 2113 
L 5691 0 
L 5113 0 
L 5113 2094 
Q 5113 2597 4934 2840 
Q 4756 3084 4391 3084 
Q 3944 3084 3684 2787 
Q 3425 2491 3425 1978 
L 3425 0 
L 2847 0 
L 2847 2094 
Q 2847 2600 2669 2842 
Q 2491 3084 2119 3084 
Q 1678 3084 1418 2786 
Q 1159 2488 1159 1978 
L 1159 0 
L 581 0 
L 581 3500 
L 1159 3500 
L 1159 2956 
Q 1356 3278 1631 3431 
Q 1906 3584 2284 3584 
Q 2666 3584 2933 3390 
Q 3200 3197 3328 2828 
z
" transform="scale(0.015625)"/>
       <path id="DejaVuSans-65" d="M 3597 1894 
L 3597 1613 
L 953 1613 
Q 991 1019 1311 708 
Q 1631 397 2203 397 
Q 2534 397 2845 478 
Q 3156 559 3463 722 
L 3463 178 
Q 3153 47 2828 -22 
Q 2503 -91 2169 -91 
Q 1331 -91 842 396 
Q 353 884 353 1716 
Q 353 2575 817 3079 
Q 1281 3584 2069 3584 
Q 2775 3584 3186 3129 
Q 3597 2675 3597 1894 
z
M 3022 2063 
Q 3016 2534 2758 2815 
Q 2500 3097 2075 3097 
Q 1594 3097 1305 2825 
Q 1016 2553 972 2059 
L 3022 2063 
z
" transform="scale(0.015625)"/>
       <path id="DejaVuSans-20" transform="scale(0.015625)"/>
       <path id="DejaVuSans-5b" d="M 550 4863 
L 1875 4863 
L 1875 4416 
L 1125 4416 
L 1125 -397 
L 1875 -397 
L 1875 -844 
L 550 -844 
L 550 4863 
z
" transform="scale(0.015625)"/>
       <path id="DejaVuSans-73" d="M 2834 3397 
L 2834 2853 
Q 2591 2978 2328 3040 
Q 2066 3103 1784 3103 
Q 1356 3103 1142 2972 
Q 928 2841 928 2578 
Q 928 2378 1081 2264 
Q 1234 2150 1697 2047 
L 1894 2003 
Q 2506 1872 2764 1633 
Q 3022 1394 3022 966 
Q 3022 478 2636 193 
Q 2250 -91 1575 -91 
Q 1294 -91 989 -36 
Q 684 19 347 128 
L 347 722 
Q 666 556 975 473 
Q 1284 391 1588 391 
Q 1994 391 2212 530 
Q 2431 669 2431 922 
Q 2431 1156 2273 1281 
Q 2116 1406 1581 1522 
L 1381 1569 
Q 847 1681 609 1914 
Q 372 2147 372 2553 
Q 372 3047 722 3315 
Q 1072 3584 1716 3584 
Q 2034 3584 2315 3537 
Q 2597 3491 2834 3397 
z
" transform="scale(0.015625)"/>
       <path id="DejaVuSans-5d" d="M 1947 4863 
L 1947 -844 
L 622 -844 
L 622 -397 
L 1369 -397 
L 1369 4416 
L 622 4416 
L 622 4863 
L 1947 4863 
z
" transform="scale(0.015625)"/>
      </defs>
      <use xlink:href="#DejaVuSans-54"/>
      <use xlink:href="#DejaVuSans-69" x="57.958984"/>
      <use xlink:href="#DejaVuSans-6d" x="85.742188"/>
      <use xlink:href="#DejaVuSans-65" x="183.154297"/>
      <use xlink:href="#DejaVuSans-20" x="244.677734"/>
      <use xlink:href="#DejaVuSans-5b" x="276.464844"/>
      <use xlink:href="#DejaVuSans-73" x="315.478516"/>
      <use xlink:href="#DejaVuSans-5d" x="367.578125"/>
     </g>
    </g>
   </g>
   <g id="matplotlib.axis_2">
    <g id="ytick_1">
     <g id="line2d_11">
      <path d="M 46.64 341.219166 
L 426.6 341.219166 
" clip-path="url(#p5c7f4044c9)" style="fill: none; stroke: #b0b0b0; stroke-width: 0.8; stroke-linecap: square"/>
     </g>
     <g id="line2d_12">
      <defs>
       <path id="mad8d940d3c" d="M 0 0 
L -3.5 0 
" style="stroke: #000000; stroke-width: 0.8"/>
      </defs>
      <g>
       <use xlink:href="#mad8d940d3c" x="46.64" y="341.219166" style="stroke: #000000; stroke-width: 0.8"/>
      </g>
     </g>
     <g id="text_7">
      <!-- −2 -->
      <g transform="translate(24.897813 345.018385) scale(0.1 -0.1)">
       <defs>
        <path id="DejaVuSans-2212" d="M 678 2272 
L 4684 2272 
L 4684 1741 
L 678 1741 
L 678 2272 
z
" transform="scale(0.015625)"/>
       </defs>
       <use xlink:href="#DejaVuSans-2212"/>
       <use xlink:href="#DejaVuSans-32" x="83.789062"/>
      </g>
     </g>
    </g>
    <g id="ytick_2">
     <g id="line2d_13">
      <path d="M 46.64 274.839583 
L 426.6 274.839583 
" clip-path="url(#p5c7f4044c9)" style="fill: none; stroke: #b0b0b0; stroke-width: 0.8; stroke-linecap: square"/>
     </g>
     <g id="line2d_14">
      <g>
       <use xlink:href="#mad8d940d3c" x="46.64" y="274.839583" style="stroke: #000000; stroke-width: 0.8"/>
      </g>
     </g>
     <g id="text_8">
      <!-- −1 -->
      <g transform="translate(24.897813 278.638802) scale(0.1 -0.1)">
       <use xlink:href="#DejaVuSans-2212"/>
       <use xlink:href="#DejaVuSans-31" x="83.789062"/>
      </g>
     </g>
    </g>
    <g id="ytick_3">
     <g id="line2d_15">
      <path d="M 46.64 208.46 
L 426.6 208.46 
" clip-path="url(#p5c7f4044c9)" style="fill: none; stroke: #b0b0b0; stroke-width: 0.8; stroke-linecap: square"/>
     </g>
     <g id="line2d_16">
      <g>
       <use xlink:href="#mad8d940d3c" x="46.64" y="208.46" style="stroke: #000000; stroke-width: 0.8"/>
      </g>
     </g>
     <g id="text_9">
      <!-- 0 -->
      <g transform="translate(33.2775 212.259219) scale(0.1 -0.1)">
       <use xlink:href="#DejaVuSans-30"/>
      </g>
     </g>
    </g>
    <g id="ytick_4">
     <g id="line2d_17">
      <path d="M 46.64 142.080417 
L 426.6 142.080417 
" clip-path="url(#p5c7f4044c9)" style="fill: none; stroke: #b0b0b0; stroke-width: 0.8; stroke-linecap: square"/>
     </g>
     <g id="line2d_18">
      <g>
       <use xlink:href="#mad8d940d3c" x="46.64" y="142.080417" style="stroke: #000000; stroke-width: 0.8"/>
      </g>
     </g>
     <g id="text_10">
      <!-- 1 -->
      <g transform="translate(33.2775 145.879636) scale(0.1 -0.1)">
       <use xlink:href="#DejaVuSans-31"/>
      </g>
     </g>
    </g>
    <g id="ytick_5">
     <g id="line2d_19">
      <path d="M 46.64 75.700834 
L 426.6 75.700834 
" clip-path="url(#p5c7f4044c9)" style="fill: none; stroke: #b0b0b0; stroke-width: 0.8; stroke-linecap: square"/>
     </g>
     <g id="line2d_20">
      <g>
       <use xlink:href="#mad8d940d3c" x="46.64" y="75.700834" style="stroke: #000000; stroke-width: 0.8"/>
      </g>
     </g>
     <g id="text_11">
      <!-- 2 -->
      <g transform="translate(33.2775 79.500053) scale(0.1 -0.1)">
       <use xlink:href="#DejaVuSans-32"/>
      </g>
     </g>
    </g>
    <g id="text_12">
     <!-- Values (rad, rad/s, rad/s²) -->
     <g transform="translate(18.818125 272.106875) rotate(-90) scale(0.1 -0.1)">
      <defs>
       <path id="DejaVuSans-56" d="M 1831 0 
L 50 4666 
L 709 4666 
L 2188 738 
L 3669 4666 
L 4325 4666 
L 2547 0 
L 1831 0 
z
" transform="scale(0.015625)"/>
       <path id="DejaVuSans-61" d="M 2194 1759 
Q 1497 1759 1228 1600 
Q 959 1441 959 1056 
Q 959 750 1161 570 
Q 1363 391 1709 391 
Q 2188 391 2477 730 
Q 2766 1069 2766 1631 
L 2766 1759 
L 2194 1759 
z
M 3341 1997 
L 3341 0 
L 2766 0 
L 2766 531 
Q 2569 213 2275 61 
Q 1981 -91 1556 -91 
Q 1019 -91 701 211 
Q 384 513 384 1019 
Q 384 1609 779 1909 
Q 1175 2209 1959 2209 
L 2766 2209 
L 2766 2266 
Q 2766 2663 2505 2880 
Q 2244 3097 1772 3097 
Q 1472 3097 1187 3025 
Q 903 2953 641 2809 
L 641 3341 
Q 956 3463 1253 3523 
Q 1550 3584 1831 3584 
Q 2591 3584 2966 3190 
Q 3341 2797 3341 1997 
z
" transform="scale(0.015625)"/>
       <path id="DejaVuSans-6c" d="M 603 4863 
L 1178 4863 
L 1178 0 
L 603 0 
L 603 4863 
z
" transform="scale(0.015625)"/>
       <path id="DejaVuSans-75" d="M 544 1381 
L 544 3500 
L 1119 3500 
L 1119 1403 
Q 1119 906 1312 657 
Q 1506 409 1894 409 
Q 2359 409 2629 706 
Q 2900 1003 2900 1516 
L 2900 3500 
L 3475 3500 
L 3475 0 
L 2900 0 
L 2900 538 
Q 2691 219 2414 64 
Q 2138 -91 1772 -91 
Q 1169 -91 856 284 
Q 544 659 544 1381 
z
M 1991 3584 
L 1991 3584 
z
" transform="scale(0.015625)"/>
       <path id="DejaVuSans-28" d="M 1984 4856 
Q 1566 4138 1362 3434 
Q 1159 2731 1159 2009 
Q 1159 1288 1364 580 
Q 1569 -128 1984 -844 
L 1484 -844 
Q 1016 -109 783 600 
Q 550 1309 550 2009 
Q 550 2706 781 3412 
Q 1013 4119 1484 4856 
L 1984 4856 
z
" transform="scale(0.015625)"/>
       <path id="DejaVuSans-72" d="M 2631 2963 
Q 2534 3019 2420 3045 
Q 2306 3072 2169 3072 
Q 1681 3072 1420 2755 
Q 1159 2438 1159 1844 
L 1159 0 
L 581 0 
L 581 3500 
L 1159 3500 
L 1159 2956 
Q 1341 3275 1631 3429 
Q 1922 3584 2338 3584 
Q 2397 3584 2469 3576 
Q 2541 3569 2628 3553 
L 2631 2963 
z
" transform="scale(0.015625)"/>
       <path id="DejaVuSans-64" d="M 2906 2969 
L 2906 4863 
L 3481 4863 
L 3481 0 
L 2906 0 
L 2906 525 
Q 2725 213 2448 61 
Q 2172 -91 1784 -91 
Q 1150 -91 751 415 
Q 353 922 353 1747 
Q 353 2572 751 3078 
Q 1150 3584 1784 3584 
Q 2172 3584 2448 3432 
Q 2725 3281 2906 2969 
z
M 947 1747 
Q 947 1113 1208 752 
Q 1469 391 1925 391 
Q 2381 391 2643 752 
Q 2906 1113 2906 1747 
Q 2906 2381 2643 2742 
Q 2381 3103 1925 3103 
Q 1469 3103 1208 2742 
Q 947 2381 947 1747 
z
" transform="scale(0.015625)"/>
       <path id="DejaVuSans-2c" d="M 750 794 
L 1409 794 
L 1409 256 
L 897 -744 
L 494 -744 
L 750 256 
L 750 794 
z
" transform="scale(0.015625)"/>
       <path id="DejaVuSans-2f" d="M 1625 4666 
L 2156 4666 
L 531 -594 
L 0 -594 
L 1625 4666 
z
" transform="scale(0.015625)"/>
       <path id="DejaVuSans-b2" d="M 838 2444 
L 2163 2444 
L 2163 2088 
L 294 2088 
L 294 2431 
Q 400 2528 597 2703 
Q 1672 3656 1672 3950 
Q 1672 4156 1509 4282 
Q 1347 4409 1081 4409 
Q 919 4409 728 4354 
Q 538 4300 313 4191 
L 313 4575 
Q 553 4663 761 4706 
Q 969 4750 1147 4750 
Q 1600 4750 1872 4544 
Q 2144 4338 2144 4000 
Q 2144 3566 1109 2678 
Q 934 2528 838 2444 
z
" transform="scale(0.015625)"/>
       <path id="DejaVuSans-29" d="M 513 4856 
L 1013 4856 
Q 1481 4119 1714 3412 
Q 1947 2706 1947 2009 
Q 1947 1309 1714 600 
Q 1481 -109 1013 -844 
L 513 -844 
Q 928 -128 1133 580 
Q 1338 1288 1338 2009 
Q 1338 2731 1133 3434 
Q 928 4138 513 4856 
z
" transform="scale(0.015625)"/>
      </defs>
      <use xlink:href="#DejaVuSans-56"/>
      <use xlink:href="#DejaVuSans-61" x="60.658203"/>
      <use xlink:href="#DejaVuSans-6c" x="121.9375"/>
      <use xlink:href="#DejaVuSans-75" x="149.720703"/>
      <use xlink:href="#DejaVuSans-65" x="213.099609"/>
      <use xlink:href="#DejaVuSans-73" x="274.623047"/>
      <use xlink:href="#DejaVuSans-20" x="326.722656"/>
      <use xlink:href="#DejaVuSans-28" x="358.509766"/>
      <use xlink:href="#DejaVuSans-72" x="397.523438"/>
      <use xlink:href="#DejaVuSans-61" x="438.636719"/>
      <use xlink:href="#DejaVuSans-64" x="499.916016"/>
      <use xlink:href="#DejaVuSans-2c" x="563.392578"/>
      <use xlink:href="#DejaVuSans-20" x="595.179688"/>
      <use xlink:href="#DejaVuSans-72" x="626.966797"/>
      <use xlink:href="#DejaVuSans-61" x="668.080078"/>
      <use xlink:href="#DejaVuSans-64" x="729.359375"/>
      <use xlink:href="#DejaVuSans-2f" x="792.835938"/>
      <use xlink:href="#DejaVuSans-73" x="826.527344"/>
      <use xlink:href="#DejaVuSans-2c" x="878.626953"/>
      <use xlink:href="#DejaVuSans-20" x="910.414062"/>
      <use xlink:href="#DejaVuSans-72" x="942.201172"/>
      <use xlink:href="#DejaVuSans-61" x="983.314453"/>
      <use xlink:href="#DejaVuSans-64" x="1044.59375"/>
      <use xlink:href="#DejaVuSans-2f" x="1108.070312"/>
      <use xlink:href="#DejaVuSans-73" x="1141.761719"/>
      <use xlink:href="#DejaVuSans-b2" x="1193.861328"/>
      <use xlink:href="#DejaVuSans-29" x="1233.949219"/>
     </g>
    </g>
   </g>
   <g id="line2d_21">
    <path d="M 63.910909 156.325613 
L 65.799481 156.439159 
L 67.703923 156.777582 
L 69.624235 157.345331 
L 71.592159 158.161056 
L 73.623564 159.248247 
L 75.71845 160.625681 
L 77.908558 162.337518 
L 80.193889 164.411154 
L 82.606182 166.906181 
L 85.161309 169.875025 
L 87.891009 173.393802 
L 90.842894 177.568974 
L 94.096316 182.566297 
L 97.778237 188.644018 
L 102.190195 196.377583 
L 108.728779 208.346019 
L 117.108324 223.600815 
L 121.520282 231.161212 
L 125.186333 237.015863 
L 128.439755 241.802717 
L 131.39164 245.760529 
L 134.12134 249.058635 
L 136.676467 251.805988 
L 139.08876 254.080466 
L 141.374091 255.936419 
L 143.564199 257.432933 
L 145.659085 258.599346 
L 147.67462 259.472235 
L 149.642543 260.085264 
L 151.562856 260.453409 
L 153.467298 260.592811 
L 155.35587 260.508617 
L 157.260312 260.199698 
L 159.180624 259.661501 
L 161.148548 258.875743 
L 163.164082 257.828241 
L 165.243098 256.494724 
L 167.417336 254.831381 
L 169.686796 252.81056 
L 172.083219 250.372802 
L 174.622475 247.465341 
L 177.336305 244.011669 
L 180.25645 239.927857 
L 183.462261 235.052853 
L 187.06483 229.158171 
L 191.349825 221.700711 
L 197.332947 210.795752 
L 207.124953 192.949152 
L 211.4893 185.490441 
L 215.13948 179.679849 
L 218.377032 174.934103 
L 221.328917 170.993523 
L 224.058617 167.712797 
L 226.613744 164.982803 
L 229.026037 162.725542 
L 231.311368 160.886528 
L 233.485606 159.416433 
L 235.580492 158.264371 
L 237.596027 157.405514 
L 239.56395 156.806344 
L 241.484262 156.451823 
L 243.388705 156.325983 
L 245.277276 156.423631 
L 247.181718 156.746074 
L 249.102031 157.29782 
L 251.069954 158.097318 
L 253.085489 159.158688 
L 255.180375 160.517491 
L 257.354613 162.197106 
L 259.639944 164.249601 
L 262.036367 166.705994 
L 264.575623 169.632135 
L 267.289453 173.104372 
L 270.225467 177.229577 
L 273.447149 182.149031 
L 277.081459 188.11707 
L 281.414065 195.67949 
L 287.603501 206.980986 
L 296.808305 223.753565 
L 301.204392 231.278236 
L 304.870443 237.124281 
L 308.107994 241.879761 
L 311.05988 245.830343 
L 313.78958 249.121155 
L 316.344706 251.861221 
L 318.757 254.128471 
L 321.04233 255.977312 
L 323.216568 257.457028 
L 325.311455 258.618565 
L 327.326989 259.486686 
L 329.294913 260.095005 
L 331.215225 260.45852 
L 333.119667 260.593312 
L 335.008239 260.504545 
L 336.912681 260.191029 
L 338.832993 259.648226 
L 340.800917 258.857797 
L 342.816451 257.80558 
L 344.911338 256.456104 
L 347.085576 254.785921 
L 349.355036 252.758193 
L 351.751459 250.313449 
L 354.290715 247.398982 
L 357.004545 243.938346 
L 359.94056 239.824528 
L 363.162241 234.915996 
L 366.780681 228.984923 
L 371.081546 221.489392 
L 377.15989 210.401375 
L 386.66623 193.076134 
L 391.046447 185.583308 
L 394.696628 179.765868 
L 397.934179 175.012891 
L 400.886064 171.064881 
L 403.615765 167.776664 
L 406.170891 165.03919 
L 408.583184 162.77451 
L 409.329091 162.139362 
L 409.329091 162.139362 
" clip-path="url(#p5c7f4044c9)" style="fill: none; stroke: #1f77b4; stroke-width: 1.5; stroke-linecap: square"/>
   </g>
   <g id="line2d_22">
    <path d="M 63.910909 208.475646 
L 73.90923 218.177159 
L 79.114705 222.912138 
L 83.352089 226.475154 
L 87.04988 229.301268 
L 90.382654 231.573762 
L 93.429761 233.388276 
L 96.286424 234.83453 
L 98.984384 235.954116 
L 101.555381 236.783749 
L 104.047026 237.356347 
L 106.47519 237.688172 
L 108.871612 237.792735 
L 111.268035 237.674573 
L 113.680329 237.332125 
L 116.140233 236.756276 
L 118.663619 235.935187 
L 121.282227 234.847462 
L 124.043668 233.455986 
L 126.979683 231.722704 
L 130.137882 229.595069 
L 133.597619 226.990504 
L 137.485855 223.77687 
L 142.008905 219.739121 
L 147.706361 214.337583 
L 168.004539 194.816794 
L 172.384756 191.072011 
L 176.161899 188.126736 
L 179.558154 185.754644 
L 182.652873 183.858322 
L 185.541276 182.344545 
L 188.270977 181.162297 
L 190.873714 180.275464 
L 193.38123 179.654348 
L 195.825264 179.276954 
L 198.237557 179.129782 
L 200.63398 179.207008 
L 203.046273 179.508716 
L 205.490307 180.039821 
L 207.997823 180.813753 
L 210.60056 181.852085 
L 213.33026 183.183599 
L 216.234535 184.852673 
L 219.345123 186.901613 
L 222.741378 189.410284 
L 226.534392 192.495589 
L 230.914609 196.355229 
L 236.326399 201.436487 
L 245.182054 210.109318 
L 253.767914 218.4072 
L 258.909907 223.071099 
L 263.131421 226.608118 
L 266.813342 229.40954 
L 270.130245 231.659217 
L 273.177353 233.461935 
L 276.018145 234.888788 
L 278.700235 235.991698 
L 281.271232 236.81185 
L 283.762877 237.374902 
L 286.19104 237.697194 
L 288.587463 237.79224 
L 290.983886 237.664567 
L 293.396179 237.312665 
L 295.856084 236.727417 
L 298.37947 235.897052 
L 301.013948 234.792852 
L 303.775389 233.391026 
L 306.711404 231.647704 
L 309.885474 229.499098 
L 313.361081 226.871712 
L 317.265187 223.633888 
L 321.819977 219.556713 
L 327.596785 214.068851 
L 347.244279 195.149852 
L 351.687977 191.326483 
L 355.512732 188.32162 
L 358.924857 185.91714 
L 362.051316 183.981172 
L 364.955591 182.440435 
L 367.685291 181.239964 
L 370.288028 180.334709 
L 372.795544 179.695084 
L 375.239578 179.299142 
L 377.651871 179.133391 
L 380.048294 179.192117 
L 382.460587 179.475383 
L 384.904621 179.988213 
L 387.412137 180.744045 
L 390.014874 181.764503 
L 392.728704 183.070151 
L 395.617108 184.711055 
L 398.711826 186.729979 
L 402.092211 189.207182 
L 405.853484 192.246809 
L 409.329091 195.271973 
L 409.329091 195.271973 
" clip-path="url(#p5c7f4044c9)" style="fill: none; stroke: #ff7f0e; stroke-width: 1.5; stroke-linecap: square"/>
   </g>
   <g id="line2d_23">
    <path d="M 63.910909 224.106577 
L 67.799145 223.995175 
L 71.65564 223.662524 
L 75.432784 223.114427 
L 79.130575 222.354458 
L 82.780756 221.37752 
L 86.415066 220.17417 
L 90.096988 218.719711 
L 93.937613 216.959951 
L 98.095644 214.803794 
L 102.951972 212.02423 
L 110.982369 207.121502 
L 117.80662 203.067808 
L 122.409022 200.590768 
L 126.455961 198.661819 
L 130.248975 197.098064 
L 133.930896 195.819192 
L 137.581077 194.785398 
L 141.262998 193.972978 
L 145.008401 193.374049 
L 148.833155 192.988168 
L 152.705521 192.820806 
L 156.593757 192.874401 
L 160.466122 193.149973 
L 164.259136 193.641608 
L 167.988669 194.348914 
L 171.65472 195.270951 
L 175.28903 196.414868 
L 178.955081 197.803215 
L 182.748095 199.480859 
L 186.795034 201.518964 
L 191.413306 204.103199 
L 197.793187 207.955009 
L 207.220175 213.628878 
L 211.886059 216.161141 
L 215.948868 218.117935 
L 219.757752 219.708071 
L 223.439674 221.006184 
L 227.089854 222.05886 
L 230.771776 222.889675 
L 234.517179 223.506455 
L 238.326063 223.908525 
L 242.198428 224.093857 
L 246.086664 224.058158 
L 249.95903 223.800748 
L 253.767914 223.32517 
L 257.497446 222.636001 
L 261.163497 221.732587 
L 264.797808 220.60762 
L 268.463859 219.238316 
L 272.241002 217.586855 
L 276.256201 215.584144 
L 280.795121 213.063918 
L 286.873465 209.411872 
L 297.252675 203.162655 
L 301.886817 200.659713 
L 305.933756 198.722219 
L 309.72677 197.149693 
L 313.408692 195.862063 
L 317.058872 194.819681 
L 320.740794 193.998897 
L 324.486196 193.391852 
L 328.310951 192.998058 
L 332.183316 192.822934 
L 336.071552 192.868796 
L 339.943918 193.136515 
L 343.752802 193.622641 
L 347.482334 194.322651 
L 351.148385 195.237197 
L 354.782696 196.373497 
L 358.448747 197.754196 
L 362.22589 199.416841 
L 366.256959 201.438507 
L 370.843491 203.996449 
L 377.080538 207.754341 
L 386.920156 213.67821 
L 391.570169 216.197339 
L 395.632978 218.149691 
L 399.441862 219.735246 
L 403.123784 221.028791 
L 406.773964 222.07698 
L 409.329091 222.674602 
L 409.329091 222.674602 
" clip-path="url(#p5c7f4044c9)" style="fill: none; stroke: #2ca02c; stroke-width: 1.5; stroke-linecap: square"/>
   </g>
   <g id="patch_3">
    <path d="M 46.64 390.04 
L 46.64 26.88 
" style="fill: none; stroke: #000000; stroke-width: 0.8; stroke-linejoin: miter; stroke-linecap: square"/>
   </g>
   <g id="patch_4">
    <path d="M 426.6 390.04 
L 426.6 26.88 
" style="fill: none; stroke: #000000; stroke-width: 0.8; stroke-linejoin: miter; stroke-linecap: square"/>
   </g>
   <g id="patch_5">
    <path d="M 46.64 390.04 
L 426.6 390.04 
" style="fill: none; stroke: #000000; stroke-width: 0.8; stroke-linejoin: miter; stroke-linecap: square"/>
   </g>
   <g id="patch_6">
    <path d="M 46.64 26.88 
L 426.6 26.88 
" style="fill: none; stroke: #000000; stroke-width: 0.8; stroke-linejoin: miter; stroke-linecap: square"/>
   </g>
   <g id="text_13">
    <!-- Pendulum Simulation: Initial Conditions -->
    <g transform="translate(118.73875 20.88) scale(0.12 -0.12)">
     <defs>
      <path id="DejaVuSans-50" d="M 1259 4147 
L 1259 2394 
L 2053 2394 
Q 2494 2394 2734 2622 
Q 2975 2850 2975 3272 
Q 2975 3691 2734 3919 
Q 2494 4147 2053 4147 
L 1259 4147 
z
M 628 4666 
L 2053 4666 
Q 2838 4666 3239 4311 
Q 3641 3956 3641 3272 
Q 3641 2581 3239 2228 
Q 2838 1875 2053 1875 
L 1259 1875 
L 1259 0 
L 628 0 
L 628 4666 
z
" transform="scale(0.015625)"/>
      <path id="DejaVuSans-6e" d="M 3513 2113 
L 3513 0 
L 2938 0 
L 2938 2094 
Q 2938 2591 2744 2837 
Q 2550 3084 2163 3084 
Q 1697 3084 1428 2787 
Q 1159 2491 1159 1978 
L 1159 0 
L 581 0 
L 581 3500 
L 1159 3500 
L 1159 2956 
Q 1366 3272 1645 3428 
Q 1925 3584 2291 3584 
Q 2894 3584 3203 3211 
Q 3513 2838 3513 2113 
z
" transform="scale(0.015625)"/>
      <path id="DejaVuSans-53" d="M 3425 4513 
L 3425 3897 
Q 3066 4069 2747 4153 
Q 2428 4238 2131 4238 
Q 1616 4238 1336 4038 
Q 1056 3838 1056 3469 
Q 1056 3159 1242 3001 
Q 1428 2844 1947 2747 
L 2328 2669 
Q 3034 2534 3370 2195 
Q 3706 1856 3706 1288 
Q 3706 609 3251 259 
Q 2797 -91 1919 -91 
Q 1588 -91 1214 -16 
Q 841 59 441 206 
L 441 856 
Q 825 641 1194 531 
Q 1563 422 1919 422 
Q 2459 422 2753 634 
Q 3047 847 3047 1241 
Q 3047 1584 2836 1778 
Q 2625 1972 2144 2069 
L 1759 2144 
Q 1053 2284 737 2584 
Q 422 2884 422 3419 
Q 422 4038 858 4394 
Q 1294 4750 2059 4750 
Q 2388 4750 2728 4690 
Q 3069 4631 3425 4513 
z
" transform="scale(0.015625)"/>
      <path id="DejaVuSans-74" d="M 1172 4494 
L 1172 3500 
L 2356 3500 
L 2356 3053 
L 1172 3053 
L 1172 1153 
Q 1172 725 1289 603 
Q 1406 481 1766 481 
L 2356 481 
L 2356 0 
L 1766 0 
Q 1100 0 847 248 
Q 594 497 594 1153 
L 594 3053 
L 172 3053 
L 172 3500 
L 594 3500 
L 594 4494 
L 1172 4494 
z
" transform="scale(0.015625)"/>
      <path id="DejaVuSans-6f" d="M 1959 3097 
Q 1497 3097 1228 2736 
Q 959 2375 959 1747 
Q 959 1119 1226 758 
Q 1494 397 1959 397 
Q 2419 397 2687 759 
Q 2956 1122 2956 1747 
Q 2956 2369 2687 2733 
Q 2419 3097 1959 3097 
z
M 1959 3584 
Q 2709 3584 3137 3096 
Q 3566 2609 3566 1747 
Q 3566 888 3137 398 
Q 2709 -91 1959 -91 
Q 1206 -91 779 398 
Q 353 888 353 1747 
Q 353 2609 779 3096 
Q 1206 3584 1959 3584 
z
" transform="scale(0.015625)"/>
      <path id="DejaVuSans-3a" d="M 750 794 
L 1409 794 
L 1409 0 
L 750 0 
L 750 794 
z
M 750 3309 
L 1409 3309 
L 1409 2516 
L 750 2516 
L 750 3309 
z
" transform="scale(0.015625)"/>
      <path id="DejaVuSans-49" d="M 628 4666 
L 1259 4666 
L 1259 0 
L 628 0 
L 628 4666 
z
" transform="scale(0.015625)"/>
      <path id="DejaVuSans-43" d="M 4122 4306 
L 4122 3641 
Q 3803 3938 3442 4084 
Q 3081 4231 2675 4231 
Q 1875 4231 1450 3742 
Q 1025 3253 1025 2328 
Q 1025 1406 1450 917 
Q 1875 428 2675 428 
Q 3081 428 3442 575 
Q 3803 722 4122 1019 
L 4122 359 
Q 3791 134 3420 21 
Q 3050 -91 2638 -91 
Q 1578 -91 968 557 
Q 359 1206 359 2328 
Q 359 3453 968 4101 
Q 1578 4750 2638 4750 
Q 3056 4750 3426 4639 
Q 3797 4528 4122 4306 
z
" transform="scale(0.015625)"/>
     </defs>
     <use xlink:href="#DejaVuSans-50"/>
     <use xlink:href="#DejaVuSans-65" x="56.677734"/>
     <use xlink:href="#DejaVuSans-6e" x="118.201172"/>
     <use xlink:href="#DejaVuSans-64" x="181.580078"/>
     <use xlink:href="#DejaVuSans-75" x="245.056641"/>
     <use xlink:href="#DejaVuSans-6c" x="308.435547"/>
     <use xlink:href="#DejaVuSans-75" x="336.21875"/>
     <use xlink:href="#DejaVuSans-6d" x="399.597656"/>
     <use xlink:href="#DejaVuSans-20" x="497.009766"/>
     <use xlink:href="#DejaVuSans-53" x="528.796875"/>
     <use xlink:href="#DejaVuSans-69" x="592.273438"/>
     <use xlink:href="#DejaVuSans-6d" x="620.056641"/>
     <use xlink:href="#DejaVuSans-75" x="717.46875"/>
     <use xlink:href="#DejaVuSans-6c" x="780.847656"/>
     <use xlink:href="#DejaVuSans-61" x="808.630859"/>
     <use xlink:href="#DejaVuSans-74" x="869.910156"/>
     <use xlink:href="#DejaVuSans-69" x="909.119141"/>
     <use xlink:href="#DejaVuSans-6f" x="936.902344"/>
     <use xlink:href="#DejaVuSans-6e" x="998.083984"/>
     <use xlink:href="#DejaVuSans-3a" x="1061.462891"/>
     <use xlink:href="#DejaVuSans-20" x="1095.154297"/>
     <use xlink:href="#DejaVuSans-49" x="1126.941406"/>
     <use xlink:href="#DejaVuSans-6e" x="1156.433594"/>
     <use xlink:href="#DejaVuSans-69" x="1219.8125"/>
     <use xlink:href="#DejaVuSans-74" x="1247.595703"/>
     <use xlink:href="#DejaVuSans-69" x="1286.804688"/>
     <use xlink:href="#DejaVuSans-61" x="1314.587891"/>
     <use xlink:href="#DejaVuSans-6c" x="1375.867188"/>
     <use xlink:href="#DejaVuSans-20" x="1403.650391"/>
     <use xlink:href="#DejaVuSans-43" x="1435.4375"/>
     <use xlink:href="#DejaVuSans-6f" x="1505.261719"/>
     <use xlink:href="#DejaVuSans-6e" x="1566.443359"/>
     <use xlink:href="#DejaVuSans-64" x="1629.822266"/>
     <use xlink:href="#DejaVuSans-69" x="1693.298828"/>
     <use xlink:href="#DejaVuSans-74" x="1721.082031"/>
     <use xlink:href="#DejaVuSans-69" x="1760.291016"/>
     <use xlink:href="#DejaVuSans-6f" x="1788.074219"/>
     <use xlink:href="#DejaVuSans-6e" x="1849.255859"/>
     <use xlink:href="#DejaVuSans-73" x="1912.634766"/>
    </g>
   </g>
   <g id="legend_1">
    <g id="patch_7">
     <path d="M 270.1625 78.914375 
L 419.6 78.914375 
Q 421.6 78.914375 421.6 76.914375 
L 421.6 33.88 
Q 421.6 31.88 419.6 31.88 
L 270.1625 31.88 
Q 268.1625 31.88 268.1625 33.88 
L 268.1625 76.914375 
Q 268.1625 78.914375 270.1625 78.914375 
z
" style="fill: #ffffff; opacity: 0.8; stroke: #cccccc; stroke-linejoin: miter"/>
    </g>
    <g id="line2d_24">
     <path d="M 272.1625 39.978437 
L 282.1625 39.978437 
L 292.1625 39.978437 
" style="fill: none; stroke: #1f77b4; stroke-width: 1.5; stroke-linecap: square"/>
    </g>
    <g id="text_14">
     <!-- Angle (rad) -->
     <g transform="translate(300.1625 43.478437) scale(0.1 -0.1)">
      <defs>
       <path id="DejaVuSans-41" d="M 2188 4044 
L 1331 1722 
L 3047 1722 
L 2188 4044 
z
M 1831 4666 
L 2547 4666 
L 4325 0 
L 3669 0 
L 3244 1197 
L 1141 1197 
L 716 0 
L 50 0 
L 1831 4666 
z
" transform="scale(0.015625)"/>
       <path id="DejaVuSans-67" d="M 2906 1791 
Q 2906 2416 2648 2759 
Q 2391 3103 1925 3103 
Q 1463 3103 1205 2759 
Q 947 2416 947 1791 
Q 947 1169 1205 825 
Q 1463 481 1925 481 
Q 2391 481 2648 825 
Q 2906 1169 2906 1791 
z
M 3481 434 
Q 3481 -459 3084 -895 
Q 2688 -1331 1869 -1331 
Q 1566 -1331 1297 -1286 
Q 1028 -1241 775 -1147 
L 775 -588 
Q 1028 -725 1275 -790 
Q 1522 -856 1778 -856 
Q 2344 -856 2625 -561 
Q 2906 -266 2906 331 
L 2906 616 
Q 2728 306 2450 153 
Q 2172 0 1784 0 
Q 1141 0 747 490 
Q 353 981 353 1791 
Q 353 2603 747 3093 
Q 1141 3584 1784 3584 
Q 2172 3584 2450 3431 
Q 2728 3278 2906 2969 
L 2906 3500 
L 3481 3500 
L 3481 434 
z
" transform="scale(0.015625)"/>
      </defs>
      <use xlink:href="#DejaVuSans-41"/>
      <use xlink:href="#DejaVuSans-6e" x="68.408203"/>
      <use xlink:href="#DejaVuSans-67" x="131.787109"/>
      <use xlink:href="#DejaVuSans-6c" x="195.263672"/>
      <use xlink:href="#DejaVuSans-65" x="223.046875"/>
      <use xlink:href="#DejaVuSans-20" x="284.570312"/>
      <use xlink:href="#DejaVuSans-28" x="316.357422"/>
      <use xlink:href="#DejaVuSans-72" x="355.371094"/>
      <use xlink:href="#DejaVuSans-61" x="396.484375"/>
      <use xlink:href="#DejaVuSans-64" x="457.763672"/>
      <use xlink:href="#DejaVuSans-29" x="521.240234"/>
     </g>
    </g>
    <g id="line2d_25">
     <path d="M 272.1625 54.656563 
L 282.1625 54.656563 
L 292.1625 54.656563 
" style="fill: none; stroke: #ff7f0e; stroke-width: 1.5; stroke-linecap: square"/>
    </g>
    <g id="text_15">
     <!-- Angular Velocity (rad/s) -->
     <g transform="translate(300.1625 58.156563) scale(0.1 -0.1)">
      <defs>
       <path id="DejaVuSans-63" d="M 3122 3366 
L 3122 2828 
Q 2878 2963 2633 3030 
Q 2388 3097 2138 3097 
Q 1578 3097 1268 2742 
Q 959 2388 959 1747 
Q 959 1106 1268 751 
Q 1578 397 2138 397 
Q 2388 397 2633 464 
Q 2878 531 3122 666 
L 3122 134 
Q 2881 22 2623 -34 
Q 2366 -91 2075 -91 
Q 1284 -91 818 406 
Q 353 903 353 1747 
Q 353 2603 823 3093 
Q 1294 3584 2113 3584 
Q 2378 3584 2631 3529 
Q 2884 3475 3122 3366 
z
" transform="scale(0.015625)"/>
       <path id="DejaVuSans-79" d="M 2059 -325 
Q 1816 -950 1584 -1140 
Q 1353 -1331 966 -1331 
L 506 -1331 
L 506 -850 
L 844 -850 
Q 1081 -850 1212 -737 
Q 1344 -625 1503 -206 
L 1606 56 
L 191 3500 
L 800 3500 
L 1894 763 
L 2988 3500 
L 3597 3500 
L 2059 -325 
z
" transform="scale(0.015625)"/>
      </defs>
      <use xlink:href="#DejaVuSans-41"/>
      <use xlink:href="#DejaVuSans-6e" x="68.408203"/>
      <use xlink:href="#DejaVuSans-67" x="131.787109"/>
      <use xlink:href="#DejaVuSans-75" x="195.263672"/>
      <use xlink:href="#DejaVuSans-6c" x="258.642578"/>
      <use xlink:href="#DejaVuSans-61" x="286.425781"/>
      <use xlink:href="#DejaVuSans-72" x="347.705078"/>
      <use xlink:href="#DejaVuSans-20" x="388.818359"/>
      <use xlink:href="#DejaVuSans-56" x="420.605469"/>
      <use xlink:href="#DejaVuSans-65" x="481.263672"/>
      <use xlink:href="#DejaVuSans-6c" x="542.787109"/>
      <use xlink:href="#DejaVuSans-6f" x="570.570312"/>
      <use xlink:href="#DejaVuSans-63" x="631.751953"/>
      <use xlink:href="#DejaVuSans-69" x="686.732422"/>
      <use xlink:href="#DejaVuSans-74" x="714.515625"/>
      <use xlink:href="#DejaVuSans-79" x="753.724609"/>
      <use xlink:href="#DejaVuSans-20" x="812.904297"/>
      <use xlink:href="#DejaVuSans-28" x="844.691406"/>
      <use xlink:href="#DejaVuSans-72" x="883.705078"/>
      <use xlink:href="#DejaVuSans-61" x="924.818359"/>
      <use xlink:href="#DejaVuSans-64" x="986.097656"/>
      <use xlink:href="#DejaVuSans-2f" x="1049.574219"/>
      <use xlink:href="#DejaVuSans-73" x="1083.265625"/>
      <use xlink:href="#DejaVuSans-29" x="1135.365234"/>
     </g>
    </g>
    <g id="line2d_26">
     <path d="M 272.1625 69.334687 
L 282.1625 69.334687 
L 292.1625 69.334687 
" style="fill: none; stroke: #2ca02c; stroke-width: 1.5; stroke-linecap: square"/>
    </g>
    <g id="text_16">
     <!-- Angular Accel (rad/s²) -->
     <g transform="translate(300.1625 72.834687) scale(0.1 -0.1)">
      <use xlink:href="#DejaVuSans-41"/>
      <use xlink:href="#DejaVuSans-6e" x="68.408203"/>
      <use xlink:href="#DejaVuSans-67" x="131.787109"/>
      <use xlink:href="#DejaVuSans-75" x="195.263672"/>
      <use xlink:href="#DejaVuSans-6c" x="258.642578"/>
      <use xlink:href="#DejaVuSans-61" x="286.425781"/>
      <use xlink:href="#DejaVuSans-72" x="347.705078"/>
      <use xlink:href="#DejaVuSans-20" x="388.818359"/>
      <use xlink:href="#DejaVuSans-41" x="420.605469"/>
      <use xlink:href="#DejaVuSans-63" x="487.263672"/>
      <use xlink:href="#DejaVuSans-63" x="542.244141"/>
      <use xlink:href="#DejaVuSans-65" x="597.224609"/>
      <use xlink:href="#DejaVuSans-6c" x="658.748047"/>
      <use xlink:href="#DejaVuSans-20" x="686.53125"/>
      <use xlink:href="#DejaVuSans-28" x="718.318359"/>
      <use xlink:href="#DejaVuSans-72" x="757.332031"/>
      <use xlink:href="#DejaVuSans-61" x="798.445312"/>
      <use xlink:href="#DejaVuSans-64" x="859.724609"/>
      <use xlink:href="#DejaVuSans-2f" x="923.201172"/>
      <use xlink:href="#DejaVuSans-73" x="956.892578"/>
      <use xlink:href="#DejaVuSans-b2" x="1008.992188"/>
      <use xlink:href="#DejaVuSans-29" x="1049.080078"/>
     </g>
    </g>
   </g>
  </g>
  <g id="axes_2">
   <g id="patch_8">
    <path d="M 473.24 390.04 
L 853.2 390.04 
L 853.2 26.88 
L 473.24 26.88 
z
" style="fill: #ffffff"/>
   </g>
   <g id="matplotlib.axis_3">
    <g id="xtick_6">
     <g id="line2d_27">
      <path d="M 490.510909 390.04 
L 490.510909 26.88 
" clip-path="url(#pfd1741c4ef)" style="fill: none; stroke: #b0b0b0; stroke-width: 0.8; stroke-linecap: square"/>
     </g>
     <g id="line2d_28">
      <g>
       <use xlink:href="#ma25ed03ad2" x="490.510909" y="390.04" style="stroke: #000000; stroke-width: 0.8"/>
      </g>
     </g>
     <g id="text_17">
      <!-- 0 -->
      <g transform="translate(487.329659 404.638438) scale(0.1 -0.1)">
       <use xlink:href="#DejaVuSans-30"/>
      </g>
     </g>
    </g>
    <g id="xtick_7">
     <g id="line2d_29">
      <path d="M 569.862662 390.04 
L 569.862662 26.88 
" clip-path="url(#pfd1741c4ef)" style="fill: none; stroke: #b0b0b0; stroke-width: 0.8; stroke-linecap: square"/>
     </g>
     <g id="line2d_30">
      <g>
       <use xlink:href="#ma25ed03ad2" x="569.862662" y="390.04" style="stroke: #000000; stroke-width: 0.8"/>
      </g>
     </g>
     <g id="text_18">
      <!-- 5 -->
      <g transform="translate(566.681412 404.638438) scale(0.1 -0.1)">
       <use xlink:href="#DejaVuSans-35"/>
      </g>
     </g>
    </g>
    <g id="xtick_8">
     <g id="line2d_31">
      <path d="M 649.214416 390.04 
L 649.214416 26.88 
" clip-path="url(#pfd1741c4ef)" style="fill: none; stroke: #b0b0b0; stroke-width: 0.8; stroke-linecap: square"/>
     </g>
     <g id="line2d_32">
      <g>
       <use xlink:href="#ma25ed03ad2" x="649.214416" y="390.04" style="stroke: #000000; stroke-width: 0.8"/>
      </g>
     </g>
     <g id="text_19">
      <!-- 10 -->
      <g transform="translate(642.851916 404.638438) scale(0.1 -0.1)">
       <use xlink:href="#DejaVuSans-31"/>
       <use xlink:href="#DejaVuSans-30" x="63.623047"/>
      </g>
     </g>
    </g>
    <g id="xtick_9">
     <g id="line2d_33">
      <path d="M 728.566169 390.04 
L 728.566169 26.88 
" clip-path="url(#pfd1741c4ef)" style="fill: none; stroke: #b0b0b0; stroke-width: 0.8; stroke-linecap: square"/>
     </g>
     <g id="line2d_34">
      <g>
       <use xlink:href="#ma25ed03ad2" x="728.566169" y="390.04" style="stroke: #000000; stroke-width: 0.8"/>
      </g>
     </g>
     <g id="text_20">
      <!-- 15 -->
      <g transform="translate(722.203669 404.638438) scale(0.1 -0.1)">
       <use xlink:href="#DejaVuSans-31"/>
       <use xlink:href="#DejaVuSans-35" x="63.623047"/>
      </g>
     </g>
    </g>
    <g id="xtick_10">
     <g id="line2d_35">
      <path d="M 807.917922 390.04 
L 807.917922 26.88 
" clip-path="url(#pfd1741c4ef)" style="fill: none; stroke: #b0b0b0; stroke-width: 0.8; stroke-linecap: square"/>
     </g>
     <g id="line2d_36">
      <g>
       <use xlink:href="#ma25ed03ad2" x="807.917922" y="390.04" style="stroke: #000000; stroke-width: 0.8"/>
      </g>
     </g>
     <g id="text_21">
      <!-- 20 -->
      <g transform="translate(801.555422 404.638438) scale(0.1 -0.1)">
       <use xlink:href="#DejaVuSans-32"/>
       <use xlink:href="#DejaVuSans-30" x="63.623047"/>
      </g>
     </g>
    </g>
    <g id="text_22">
     <!-- Time [s] -->
     <g transform="translate(642.891094 418.316562) scale(0.1 -0.1)">
      <use xlink:href="#DejaVuSans-54"/>
      <use xlink:href="#DejaVuSans-69" x="57.958984"/>
      <use xlink:href="#DejaVuSans-6d" x="85.742188"/>
      <use xlink:href="#DejaVuSans-65" x="183.154297"/>
      <use xlink:href="#DejaVuSans-20" x="244.677734"/>
      <use xlink:href="#DejaVuSans-5b" x="276.464844"/>
      <use xlink:href="#DejaVuSans-73" x="315.478516"/>
      <use xlink:href="#DejaVuSans-5d" x="367.578125"/>
     </g>
    </g>
   </g>
   <g id="matplotlib.axis_4">
    <g id="ytick_6">
     <g id="line2d_37">
      <path d="M 473.24 341.219166 
L 853.2 341.219166 
" clip-path="url(#pfd1741c4ef)" style="fill: none; stroke: #b0b0b0; stroke-width: 0.8; stroke-linecap: square"/>
     </g>
     <g id="line2d_38">
      <g>
       <use xlink:href="#mad8d940d3c" x="473.24" y="341.219166" style="stroke: #000000; stroke-width: 0.8"/>
      </g>
     </g>
     <g id="text_23">
      <!-- −2 -->
      <g transform="translate(451.497812 345.018385) scale(0.1 -0.1)">
       <use xlink:href="#DejaVuSans-2212"/>
       <use xlink:href="#DejaVuSans-32" x="83.789062"/>
      </g>
     </g>
    </g>
    <g id="ytick_7">
     <g id="line2d_39">
      <path d="M 473.24 274.839583 
L 853.2 274.839583 
" clip-path="url(#pfd1741c4ef)" style="fill: none; stroke: #b0b0b0; stroke-width: 0.8; stroke-linecap: square"/>
     </g>
     <g id="line2d_40">
      <g>
       <use xlink:href="#mad8d940d3c" x="473.24" y="274.839583" style="stroke: #000000; stroke-width: 0.8"/>
      </g>
     </g>
     <g id="text_24">
      <!-- −1 -->
      <g transform="translate(451.497812 278.638802) scale(0.1 -0.1)">
       <use xlink:href="#DejaVuSans-2212"/>
       <use xlink:href="#DejaVuSans-31" x="83.789062"/>
      </g>
     </g>
    </g>
    <g id="ytick_8">
     <g id="line2d_41">
      <path d="M 473.24 208.46 
L 853.2 208.46 
" clip-path="url(#pfd1741c4ef)" style="fill: none; stroke: #b0b0b0; stroke-width: 0.8; stroke-linecap: square"/>
     </g>
     <g id="line2d_42">
      <g>
       <use xlink:href="#mad8d940d3c" x="473.24" y="208.46" style="stroke: #000000; stroke-width: 0.8"/>
      </g>
     </g>
     <g id="text_25">
      <!-- 0 -->
      <g transform="translate(459.8775 212.259219) scale(0.1 -0.1)">
       <use xlink:href="#DejaVuSans-30"/>
      </g>
     </g>
    </g>
    <g id="ytick_9">
     <g id="line2d_43">
      <path d="M 473.24 142.080417 
L 853.2 142.080417 
" clip-path="url(#pfd1741c4ef)" style="fill: none; stroke: #b0b0b0; stroke-width: 0.8; stroke-linecap: square"/>
     </g>
     <g id="line2d_44">
      <g>
       <use xlink:href="#mad8d940d3c" x="473.24" y="142.080417" style="stroke: #000000; stroke-width: 0.8"/>
      </g>
     </g>
     <g id="text_26">
      <!-- 1 -->
      <g transform="translate(459.8775 145.879636) scale(0.1 -0.1)">
       <use xlink:href="#DejaVuSans-31"/>
      </g>
     </g>
    </g>
    <g id="ytick_10">
     <g id="line2d_45">
      <path d="M 473.24 75.700834 
L 853.2 75.700834 
" clip-path="url(#pfd1741c4ef)" style="fill: none; stroke: #b0b0b0; stroke-width: 0.8; stroke-linecap: square"/>
     </g>
     <g id="line2d_46">
      <g>
       <use xlink:href="#mad8d940d3c" x="473.24" y="75.700834" style="stroke: #000000; stroke-width: 0.8"/>
      </g>
     </g>
     <g id="text_27">
      <!-- 2 -->
      <g transform="translate(459.8775 79.500053) scale(0.1 -0.1)">
       <use xlink:href="#DejaVuSans-32"/>
      </g>
     </g>
    </g>
    <g id="text_28">
     <!-- Values (rad, rad/s, rad/s²) -->
     <g transform="translate(445.418125 272.106875) rotate(-90) scale(0.1 -0.1)">
      <use xlink:href="#DejaVuSans-56"/>
      <use xlink:href="#DejaVuSans-61" x="60.658203"/>
      <use xlink:href="#DejaVuSans-6c" x="121.9375"/>
      <use xlink:href="#DejaVuSans-75" x="149.720703"/>
      <use xlink:href="#DejaVuSans-65" x="213.099609"/>
      <use xlink:href="#DejaVuSans-73" x="274.623047"/>
      <use xlink:href="#DejaVuSans-20" x="326.722656"/>
      <use xlink:href="#DejaVuSans-28" x="358.509766"/>
      <use xlink:href="#DejaVuSans-72" x="397.523438"/>
      <use xlink:href="#DejaVuSans-61" x="438.636719"/>
      <use xlink:href="#DejaVuSans-64" x="499.916016"/>
      <use xlink:href="#DejaVuSans-2c" x="563.392578"/>
      <use xlink:href="#DejaVuSans-20" x="595.179688"/>
      <use xlink:href="#DejaVuSans-72" x="626.966797"/>
      <use xlink:href="#DejaVuSans-61" x="668.080078"/>
      <use xlink:href="#DejaVuSans-64" x="729.359375"/>
      <use xlink:href="#DejaVuSans-2f" x="792.835938"/>
      <use xlink:href="#DejaVuSans-73" x="826.527344"/>
      <use xlink:href="#DejaVuSans-2c" x="878.626953"/>
      <use xlink:href="#DejaVuSans-20" x="910.414062"/>
      <use xlink:href="#DejaVuSans-72" x="942.201172"/>
      <use xlink:href="#DejaVuSans-61" x="983.314453"/>
      <use xlink:href="#DejaVuSans-64" x="1044.59375"/>
      <use xlink:href="#DejaVuSans-2f" x="1108.070312"/>
      <use xlink:href="#DejaVuSans-73" x="1141.761719"/>
      <use xlink:href="#DejaVuSans-b2" x="1193.861328"/>
      <use xlink:href="#DejaVuSans-29" x="1233.949219"/>
     </g>
    </g>
   </g>
   <g id="line2d_47">
    <path d="M 490.510909 156.391992 
L 494.6372 174.135639 
L 500.096601 198.677343 
L 510.967791 247.727968 
L 515.205175 265.668756 
L 518.855355 280.179242 
L 522.172259 292.476047 
L 525.282847 303.173658 
L 528.250603 312.597734 
L 531.107266 320.939261 
L 533.868707 328.327066 
L 536.550796 334.87917 
L 539.169404 340.700225 
L 541.740401 345.880641 
L 544.247916 350.441976 
L 546.707821 354.46414 
L 549.120114 357.990742 
L 551.484796 361.062314 
L 553.817738 363.733176 
L 556.103068 366.01599 
L 558.340788 367.942202 
L 560.546766 369.550917 
L 562.705134 370.853548 
L 564.831761 371.880516 
L 566.926647 372.647874 
L 568.989793 373.170052 
L 571.037068 373.461411 
L 573.084344 373.528127 
L 575.115748 373.372578 
L 577.163024 372.991651 
L 579.210299 372.384021 
L 581.273444 371.53965 
L 583.368331 370.440156 
L 585.494958 369.069417 
L 587.653325 367.409591 
L 589.843434 365.440973 
L 592.065283 363.141866 
L 594.334743 360.468622 
L 596.635944 357.410253 
L 598.984756 353.913321 
L 601.381179 349.938936 
L 603.809342 345.475989 
L 606.285117 340.455744 
L 608.824373 334.795461 
L 611.41124 328.478578 
L 614.077459 321.370184 
L 616.82303 313.4036 
L 619.663823 304.464575 
L 622.631578 294.376243 
L 625.758037 282.945891 
L 629.138422 269.721587 
L 632.883825 254.144211 
L 637.359264 234.531076 
L 644.516792 201.989935 
L 651.388654 171.122876 
L 655.705389 152.746735 
L 659.38731 138.018176 
L 662.735954 125.518533 
L 665.862413 114.688397 
L 668.830169 105.190576 
L 671.686832 96.77794 
L 674.448273 89.322326 
L 677.146233 82.668591 
L 679.764841 76.790136 
L 682.335837 71.555393 
L 684.859223 66.915451 
L 687.319127 62.84818 
L 689.747291 59.256984 
L 692.127844 56.128354 
L 694.460785 53.424332 
L 696.746116 51.110183 
L 698.983835 49.154281 
L 701.189814 47.517143 
L 703.348182 46.187399 
L 705.474809 45.134276 
L 707.569695 44.341586 
L 709.648711 43.791455 
L 711.695986 43.477591 
L 713.743261 43.388453 
L 715.774666 43.521739 
L 717.821941 43.880116 
L 719.869217 44.464986 
L 721.932362 45.286108 
L 724.027249 46.361574 
L 726.153875 47.707384 
L 728.312243 49.341249 
L 730.502352 51.282743 
L 732.724201 53.553423 
L 734.993661 56.196585 
L 737.294862 59.223282 
L 739.643674 62.686595 
L 742.024226 66.59781 
L 744.45239 71.020195 
L 746.928164 75.997469 
L 749.45155 81.575346 
L 752.038417 87.840774 
L 754.688766 94.851014 
L 757.418466 102.709375 
L 760.243389 111.530096 
L 763.195274 121.490253 
L 766.305863 132.783784 
L 769.654507 145.800339 
L 773.352298 161.092062 
L 777.716645 180.128287 
L 784.207618 209.569854 
L 792.031701 244.831964 
L 796.396047 263.458645 
L 800.093839 278.294019 
L 803.458353 290.89307 
L 806.600683 301.813825 
L 809.584309 311.39304 
L 812.440972 319.833081 
L 815.218283 327.355948 
L 817.916243 334.031018 
L 820.550721 339.963588 
L 823.121718 345.214107 
L 825.645104 349.868932 
L 828.120878 353.975035 
L 830.549042 357.576723 
L 832.929595 360.715231 
L 835.262536 363.428567 
L 835.929091 364.139809 
L 835.929091 364.139809 
" clip-path="url(#pfd1741c4ef)" style="fill: none; stroke: #1f77b4; stroke-width: 1.5; stroke-linecap: square"/>
   </g>
   <g id="line2d_48">
    <path d="M 490.510909 274.855229 
L 492.685147 276.842653 
L 494.653071 278.348492 
L 496.462291 279.459131 
L 498.144548 280.23789 
L 499.747453 280.740101 
L 501.302748 280.99625 
L 502.826301 281.022764 
L 504.349855 280.826794 
L 505.905149 280.400121 
L 507.508055 279.72732 
L 509.206182 278.767713 
L 511.015402 277.483444 
L 512.983326 275.806338 
L 515.173434 273.637063 
L 517.665079 270.843694 
L 520.632835 267.167084 
L 524.552811 261.929763 
L 539.232886 241.982374 
L 543.597232 236.613584 
L 547.818745 231.77086 
L 552.08787 227.211552 
L 556.595049 222.726255 
L 561.59421 218.072129 
L 567.736035 212.673793 
L 585.653661 197.119772 
L 590.5576 192.441883 
L 594.985427 187.912469 
L 599.19107 183.291895 
L 603.349102 178.391316 
L 607.665838 172.953978 
L 612.538035 166.444562 
L 626.615036 147.370184 
L 629.455829 144.064047 
L 631.868122 141.585964 
L 633.994749 139.710312 
L 635.915062 138.303541 
L 637.692541 137.269711 
L 639.358928 136.551843 
L 640.945963 136.105309 
L 642.485387 135.899748 
L 644.008941 135.919907 
L 645.532494 136.162233 
L 647.087789 136.63523 
L 648.706564 137.362297 
L 650.420562 138.380853 
L 652.261523 139.740684 
L 654.261187 141.500958 
L 656.498907 143.776714 
L 659.069903 146.721841 
L 662.164622 150.6211 
L 666.417876 156.36958 
L 678.526953 172.920362 
L 683.018262 178.572358 
L 687.255646 183.55096 
L 691.49303 188.1873 
L 695.889117 192.666728 
L 700.666092 197.213031 
L 706.268326 202.227625 
L 715.012889 209.710177 
L 723.678101 217.22145 
L 729.042279 222.169329 
L 733.660551 226.728722 
L 737.961416 231.287335 
L 742.119448 236.019635 
L 746.325091 241.146439 
L 750.832271 247.000016 
L 756.466245 254.709309 
L 765.147327 266.598783 
L 768.480101 270.756785 
L 771.16219 273.760187 
L 773.463391 276.014622 
L 775.510666 277.719782 
L 777.383367 278.998245 
L 779.129106 279.925294 
L 780.763752 280.546882 
L 782.334917 280.910264 
L 783.874341 281.03848 
L 785.397894 280.941512 
L 786.937318 280.618732 
L 788.524354 280.054283 
L 790.17487 279.226751 
L 791.920609 278.098985 
L 793.80918 276.608626 
L 795.888196 274.676423 
L 798.221138 272.195147 
L 800.950838 268.952768 
L 804.347093 264.551957 
L 809.568438 257.372341 
L 817.821021 246.058896 
L 822.486904 240.062718 
L 826.771899 234.914139 
L 830.993412 230.188186 
L 835.326018 225.672873 
L 835.929091 225.068966 
L 835.929091 225.068966 
" clip-path="url(#pfd1741c4ef)" style="fill: none; stroke: #ff7f0e; stroke-width: 1.5; stroke-linecap: square"/>
   </g>
   <g id="line2d_49">
    <path d="M 490.510909 224.106577 
L 492.558184 221.930622 
L 494.795904 219.216015 
L 497.366901 215.733193 
L 500.763156 210.727281 
L 507.873073 200.160556 
L 510.523421 196.68136 
L 512.808752 194.03815 
L 514.887768 191.965404 
L 516.839821 190.325925 
L 518.728393 189.026679 
L 520.569353 188.026409 
L 522.410314 187.276604 
L 524.283015 186.752604 
L 526.235068 186.438352 
L 528.314084 186.332399 
L 530.583544 186.444669 
L 533.138671 186.799791 
L 536.185778 187.457294 
L 540.232718 188.575162 
L 554.658866 192.750327 
L 559.102565 193.698177 
L 563.276467 194.362221 
L 567.323406 194.781435 
L 571.306864 194.970958 
L 575.274452 194.937013 
L 579.25791 194.679784 
L 583.288979 194.195726 
L 587.43114 193.473147 
L 591.827228 192.477041 
L 596.826388 191.107721 
L 611.252537 186.987611 
L 614.1092 186.517728 
L 616.537364 186.338682 
L 618.711602 186.398665 
L 620.711266 186.674342 
L 622.599838 187.157548 
L 624.424928 187.853096 
L 626.234148 188.78239 
L 628.043368 189.963373 
L 629.900199 191.444172 
L 631.836382 193.277062 
L 633.915398 195.559542 
L 636.216598 198.42883 
L 638.914558 202.165964 
L 642.771053 207.932258 
L 648.246324 216.075213 
L 650.991895 219.746133 
L 653.308966 222.486259 
L 655.419723 224.64629 
L 657.387646 226.349383 
L 659.276218 227.695637 
L 661.117179 228.740267 
L 662.958139 229.531897 
L 664.830841 230.095011 
L 666.767023 230.443786 
L 668.814299 230.584581 
L 671.036148 230.511295 
L 673.527793 230.20173 
L 676.463808 229.60467 
L 680.256821 228.591704 
L 688.620496 226.045356 
L 694.254471 224.481437 
L 698.809261 223.445677 
L 703.030775 222.711761 
L 707.093584 222.229503 
L 711.092913 221.978251 
L 715.0605 221.951756 
L 719.028088 222.147496 
L 723.043287 222.56902 
L 727.153708 223.225873 
L 731.454573 224.140799 
L 736.215678 225.386946 
L 742.754262 227.353869 
L 749.483291 229.319781 
L 752.895416 230.083854 
L 755.625117 230.472852 
L 757.973929 230.587546 
L 760.084685 230.472498 
L 762.052609 230.144901 
L 763.92531 229.608447 
L 765.7504 228.852938 
L 767.55962 227.860386 
L 769.384711 226.601705 
L 771.257412 225.036218 
L 773.225336 223.095957 
L 775.351962 220.677693 
L 777.732515 217.620217 
L 780.605049 213.547479 
L 785.715301 205.823805 
L 789.571797 200.199795 
L 792.222145 196.716355 
L 794.507476 194.068655 
L 796.586492 191.991415 
L 798.538545 190.347564 
L 800.427117 189.044104 
L 802.268077 188.039868 
L 804.109038 187.28633 
L 805.981739 186.758845 
L 807.933792 186.44135 
L 809.996938 186.332435 
L 812.250528 186.43901 
L 814.805654 186.789112 
L 817.836891 187.438521 
L 821.85209 188.543183 
L 835.929091 192.639969 
L 835.929091 192.639969 
" clip-path="url(#pfd1741c4ef)" style="fill: none; stroke: #2ca02c; stroke-width: 1.5; stroke-linecap: square"/>
   </g>
   <g id="patch_9">
    <path d="M 473.24 390.04 
L 473.24 26.88 
" style="fill: none; stroke: #000000; stroke-width: 0.8; stroke-linejoin: miter; stroke-linecap: square"/>
   </g>
   <g id="patch_10">
    <path d="M 853.2 390.04 
L 853.2 26.88 
" style="fill: none; stroke: #000000; stroke-width: 0.8; stroke-linejoin: miter; stroke-linecap: square"/>
   </g>
   <g id="patch_11">
    <path d="M 473.24 390.04 
L 853.2 390.04 
" style="fill: none; stroke: #000000; stroke-width: 0.8; stroke-linejoin: miter; stroke-linecap: square"/>
   </g>
   <g id="patch_12">
    <path d="M 473.24 26.88 
L 853.2 26.88 
" style="fill: none; stroke: #000000; stroke-width: 0.8; stroke-linejoin: miter; stroke-linecap: square"/>
   </g>
   <g id="text_29">
    <!-- Pendulum Simulation: With Added Momentum -->
    <g transform="translate(524.868437 20.88) scale(0.12 -0.12)">
     <defs>
      <path id="DejaVuSans-57" d="M 213 4666 
L 850 4666 
L 1831 722 
L 2809 4666 
L 3519 4666 
L 4500 722 
L 5478 4666 
L 6119 4666 
L 4947 0 
L 4153 0 
L 3169 4050 
L 2175 0 
L 1381 0 
L 213 4666 
z
" transform="scale(0.015625)"/>
      <path id="DejaVuSans-68" d="M 3513 2113 
L 3513 0 
L 2938 0 
L 2938 2094 
Q 2938 2591 2744 2837 
Q 2550 3084 2163 3084 
Q 1697 3084 1428 2787 
Q 1159 2491 1159 1978 
L 1159 0 
L 581 0 
L 581 4863 
L 1159 4863 
L 1159 2956 
Q 1366 3272 1645 3428 
Q 1925 3584 2291 3584 
Q 2894 3584 3203 3211 
Q 3513 2838 3513 2113 
z
" transform="scale(0.015625)"/>
      <path id="DejaVuSans-4d" d="M 628 4666 
L 1569 4666 
L 2759 1491 
L 3956 4666 
L 4897 4666 
L 4897 0 
L 4281 0 
L 4281 4097 
L 3078 897 
L 2444 897 
L 1241 4097 
L 1241 0 
L 628 0 
L 628 4666 
z
" transform="scale(0.015625)"/>
     </defs>
     <use xlink:href="#DejaVuSans-50"/>
     <use xlink:href="#DejaVuSans-65" x="56.677734"/>
     <use xlink:href="#DejaVuSans-6e" x="118.201172"/>
     <use xlink:href="#DejaVuSans-64" x="181.580078"/>
     <use xlink:href="#DejaVuSans-75" x="245.056641"/>
     <use xlink:href="#DejaVuSans-6c" x="308.435547"/>
     <use xlink:href="#DejaVuSans-75" x="336.21875"/>
     <use xlink:href="#DejaVuSans-6d" x="399.597656"/>
     <use xlink:href="#DejaVuSans-20" x="497.009766"/>
     <use xlink:href="#DejaVuSans-53" x="528.796875"/>
     <use xlink:href="#DejaVuSans-69" x="592.273438"/>
     <use xlink:href="#DejaVuSans-6d" x="620.056641"/>
     <use xlink:href="#DejaVuSans-75" x="717.46875"/>
     <use xlink:href="#DejaVuSans-6c" x="780.847656"/>
     <use xlink:href="#DejaVuSans-61" x="808.630859"/>
     <use xlink:href="#DejaVuSans-74" x="869.910156"/>
     <use xlink:href="#DejaVuSans-69" x="909.119141"/>
     <use xlink:href="#DejaVuSans-6f" x="936.902344"/>
     <use xlink:href="#DejaVuSans-6e" x="998.083984"/>
     <use xlink:href="#DejaVuSans-3a" x="1061.462891"/>
     <use xlink:href="#DejaVuSans-20" x="1095.154297"/>
     <use xlink:href="#DejaVuSans-57" x="1126.941406"/>
     <use xlink:href="#DejaVuSans-69" x="1223.568359"/>
     <use xlink:href="#DejaVuSans-74" x="1251.351562"/>
     <use xlink:href="#DejaVuSans-68" x="1290.560547"/>
     <use xlink:href="#DejaVuSans-20" x="1353.939453"/>
     <use xlink:href="#DejaVuSans-41" x="1385.726562"/>
     <use xlink:href="#DejaVuSans-64" x="1452.384766"/>
     <use xlink:href="#DejaVuSans-64" x="1515.861328"/>
     <use xlink:href="#DejaVuSans-65" x="1579.337891"/>
     <use xlink:href="#DejaVuSans-64" x="1640.861328"/>
     <use xlink:href="#DejaVuSans-20" x="1704.337891"/>
     <use xlink:href="#DejaVuSans-4d" x="1736.125"/>
     <use xlink:href="#DejaVuSans-6f" x="1822.404297"/>
     <use xlink:href="#DejaVuSans-6d" x="1883.585938"/>
     <use xlink:href="#DejaVuSans-65" x="1980.998047"/>
     <use xlink:href="#DejaVuSans-6e" x="2042.521484"/>
     <use xlink:href="#DejaVuSans-74" x="2105.900391"/>
     <use xlink:href="#DejaVuSans-75" x="2145.109375"/>
     <use xlink:href="#DejaVuSans-6d" x="2208.488281"/>
    </g>
   </g>
   <g id="legend_2">
    <g id="patch_13">
     <path d="M 480.24 78.914375 
L 629.6775 78.914375 
Q 631.6775 78.914375 631.6775 76.914375 
L 631.6775 33.88 
Q 631.6775 31.88 629.6775 31.88 
L 480.24 31.88 
Q 478.24 31.88 478.24 33.88 
L 478.24 76.914375 
Q 478.24 78.914375 480.24 78.914375 
z
" style="fill: #ffffff; opacity: 0.8; stroke: #cccccc; stroke-linejoin: miter"/>
    </g>
    <g id="line2d_50">
     <path d="M 482.24 39.978437 
L 492.24 39.978437 
L 502.24 39.978437 
" style="fill: none; stroke: #1f77b4; stroke-width: 1.5; stroke-linecap: square"/>
    </g>
    <g id="text_30">
     <!-- Angle (rad) -->
     <g transform="translate(510.24 43.478437) scale(0.1 -0.1)">
      <use xlink:href="#DejaVuSans-41"/>
      <use xlink:href="#DejaVuSans-6e" x="68.408203"/>
      <use xlink:href="#DejaVuSans-67" x="131.787109"/>
      <use xlink:href="#DejaVuSans-6c" x="195.263672"/>
      <use xlink:href="#DejaVuSans-65" x="223.046875"/>
      <use xlink:href="#DejaVuSans-20" x="284.570312"/>
      <use xlink:href="#DejaVuSans-28" x="316.357422"/>
      <use xlink:href="#DejaVuSans-72" x="355.371094"/>
      <use xlink:href="#DejaVuSans-61" x="396.484375"/>
      <use xlink:href="#DejaVuSans-64" x="457.763672"/>
      <use xlink:href="#DejaVuSans-29" x="521.240234"/>
     </g>
    </g>
    <g id="line2d_51">
     <path d="M 482.24 54.656563 
L 492.24 54.656563 
L 502.24 54.656563 
" style="fill: none; stroke: #ff7f0e; stroke-width: 1.5; stroke-linecap: square"/>
    </g>
    <g id="text_31">
     <!-- Angular Velocity (rad/s) -->
     <g transform="translate(510.24 58.156563) scale(0.1 -0.1)">
      <use xlink:href="#DejaVuSans-41"/>
      <use xlink:href="#DejaVuSans-6e" x="68.408203"/>
      <use xlink:href="#DejaVuSans-67" x="131.787109"/>
      <use xlink:href="#DejaVuSans-75" x="195.263672"/>
      <use xlink:href="#DejaVuSans-6c" x="258.642578"/>
      <use xlink:href="#DejaVuSans-61" x="286.425781"/>
      <use xlink:href="#DejaVuSans-72" x="347.705078"/>
      <use xlink:href="#DejaVuSans-20" x="388.818359"/>
      <use xlink:href="#DejaVuSans-56" x="420.605469"/>
      <use xlink:href="#DejaVuSans-65" x="481.263672"/>
      <use xlink:href="#DejaVuSans-6c" x="542.787109"/>
      <use xlink:href="#DejaVuSans-6f" x="570.570312"/>
      <use xlink:href="#DejaVuSans-63" x="631.751953"/>
      <use xlink:href="#DejaVuSans-69" x="686.732422"/>
      <use xlink:href="#DejaVuSans-74" x="714.515625"/>
      <use xlink:href="#DejaVuSans-79" x="753.724609"/>
      <use xlink:href="#DejaVuSans-20" x="812.904297"/>
      <use xlink:href="#DejaVuSans-28" x="844.691406"/>
      <use xlink:href="#DejaVuSans-72" x="883.705078"/>
      <use xlink:href="#DejaVuSans-61" x="924.818359"/>
      <use xlink:href="#DejaVuSans-64" x="986.097656"/>
      <use xlink:href="#DejaVuSans-2f" x="1049.574219"/>
      <use xlink:href="#DejaVuSans-73" x="1083.265625"/>
      <use xlink:href="#DejaVuSans-29" x="1135.365234"/>
     </g>
    </g>
    <g id="line2d_52">
     <path d="M 482.24 69.334687 
L 492.24 69.334687 
L 502.24 69.334687 
" style="fill: none; stroke: #2ca02c; stroke-width: 1.5; stroke-linecap: square"/>
    </g>
    <g id="text_32">
     <!-- Angular Accel (rad/s²) -->
     <g transform="translate(510.24 72.834687) scale(0.1 -0.1)">
      <use xlink:href="#DejaVuSans-41"/>
      <use xlink:href="#DejaVuSans-6e" x="68.408203"/>
      <use xlink:href="#DejaVuSans-67" x="131.787109"/>
      <use xlink:href="#DejaVuSans-75" x="195.263672"/>
      <use xlink:href="#DejaVuSans-6c" x="258.642578"/>
      <use xlink:href="#DejaVuSans-61" x="286.425781"/>
      <use xlink:href="#DejaVuSans-72" x="347.705078"/>
      <use xlink:href="#DejaVuSans-20" x="388.818359"/>
      <use xlink:href="#DejaVuSans-41" x="420.605469"/>
      <use xlink:href="#DejaVuSans-63" x="487.263672"/>
      <use xlink:href="#DejaVuSans-63" x="542.244141"/>
      <use xlink:href="#DejaVuSans-65" x="597.224609"/>
      <use xlink:href="#DejaVuSans-6c" x="658.748047"/>
      <use xlink:href="#DejaVuSans-20" x="686.53125"/>
      <use xlink:href="#DejaVuSans-28" x="718.318359"/>
      <use xlink:href="#DejaVuSans-72" x="757.332031"/>
      <use xlink:href="#DejaVuSans-61" x="798.445312"/>
      <use xlink:href="#DejaVuSans-64" x="859.724609"/>
      <use xlink:href="#DejaVuSans-2f" x="923.201172"/>
      <use xlink:href="#DejaVuSans-73" x="956.892578"/>
      <use xlink:href="#DejaVuSans-b2" x="1008.992188"/>
      <use xlink:href="#DejaVuSans-29" x="1049.080078"/>
     </g>
    </g>
   </g>
  </g>
 </g>
 <defs>
  <clipPath id="p5c7f4044c9">
   <rect x="46.64" y="26.88" width="379.96" height="363.16"/>
  </clipPath>
  <clipPath id="pfd1741c4ef">
   <rect x="473.24" y="26.88" width="379.96" height="363.16"/>
  </clipPath>
 </defs>
</svg>
